<svg xmlns="http://www.w3.org/2000/svg" width="512" height="512" viewBox="0 0 512 512" version="1.1"><path d="M 408.250 263.747 C 415.262 263.919, 426.738 263.919, 433.750 263.747 C 440.762 263.575, 435.025 263.435, 421 263.435 C 406.975 263.435, 401.238 263.575, 408.250 263.747 M 300 266.276 C 296.425 267.499, 291.341 269.769, 288.702 271.320 C 286.063 272.872, 281.530 276.553, 278.628 279.502 C 275.726 282.450, 271.966 287.481, 270.271 290.681 C 268.577 293.882, 266.473 298.944, 265.595 301.932 C 264.198 306.688, 264.003 316.386, 264.024 379.932 C 264.040 426.093, 264.424 454.127, 265.079 456.972 C 265.646 459.432, 267.508 464.382, 269.216 467.972 C 271.286 472.321, 274.522 476.678, 278.911 481.027 C 282.535 484.616, 288.246 488.995, 291.603 490.757 C 294.960 492.519, 300.676 494.649, 304.306 495.491 C 309.783 496.761, 318.077 496.977, 353.070 496.761 C 395.234 496.500, 395.234 496.500, 391.095 491.500 C 388.819 488.750, 386.406 485.262, 385.734 483.750 C 384.777 481.597, 383.833 481, 381.384 481 C 379.664 481, 374.031 479.928, 368.867 478.618 C 363.702 477.308, 356.478 474.876, 352.812 473.214 C 349.147 471.552, 342.852 468.062, 338.824 465.459 C 334.796 462.855, 327.964 457.300, 323.643 453.113 C 319.322 448.926, 313.855 442.800, 311.496 439.500 C 309.136 436.200, 305.383 429.877, 303.156 425.449 C 300.929 421.021, 297.946 413.392, 296.527 408.496 C 295.108 403.600, 293.476 395.262, 292.900 389.966 C 292.156 383.127, 292.171 377.465, 292.952 370.419 C 293.556 364.964, 294.967 357.125, 296.087 353 C 297.207 348.875, 300.338 340.980, 303.045 335.456 C 305.876 329.679, 310.840 321.836, 314.733 316.991 C 318.455 312.359, 324.650 305.919, 328.500 302.681 C 332.350 299.442, 338.842 294.828, 342.927 292.427 C 347.012 290.026, 354.212 286.659, 358.927 284.946 C 363.642 283.233, 370.802 281.194, 374.838 280.416 C 378.874 279.637, 386.974 278.907, 392.838 278.792 C 403.500 278.585, 403.500 278.585, 394.235 278.255 C 385.040 277.927, 384.979 277.908, 386.105 275.712 C 386.729 274.496, 389.012 271.363, 391.179 268.750 C 395.119 264, 395.119 264, 350.810 264.026 C 307.661 264.051, 306.330 264.110, 300 266.276 M 391.750 293.706 C 392.988 293.944, 395.012 293.944, 396.250 293.706 C 397.488 293.467, 396.475 293.272, 394 293.272 C 391.525 293.272, 390.512 293.467, 391.750 293.706 M 332 319.500 C 329.571 321.975, 327.809 324, 328.084 324 C 328.359 324, 330.571 321.975, 333 319.500 C 335.429 317.025, 337.191 315, 336.916 315 C 336.641 315, 334.429 317.025, 332 319.500 M 396.250 332.689 C 397.212 332.941, 398.788 332.941, 399.750 332.689 C 400.712 332.438, 399.925 332.232, 398 332.232 C 396.075 332.232, 395.288 332.438, 396.250 332.689 M 454.437 337.250 C 451.500 340.500, 451.500 340.500, 454.750 337.563 C 456.538 335.948, 458 334.485, 458 334.313 C 458 334.141, 457.859 334, 457.687 334 C 457.515 334, 456.052 335.462, 454.437 337.250 M 307.320 380 C 307.320 383.575, 307.502 385.038, 307.723 383.250 C 307.945 381.462, 307.945 378.538, 307.723 376.750 C 307.502 374.962, 307.320 376.425, 307.320 380 M 357 411.313 C 357 411.485, 358.462 412.948, 360.250 414.563 C 363.500 417.500, 363.500 417.500, 360.563 414.250 C 358.948 412.462, 357.485 411, 357.313 411 C 357.141 411, 357 411.141, 357 411.313" stroke="none" fill="#0caf7b" fill-rule="evenodd"/><path d="M 381.500 294.715 C 379.850 294.943, 375.801 295.817, 372.502 296.656 C 369.204 297.496, 363.804 299.311, 360.502 300.690 C 357.201 302.068, 350.869 305.601, 346.432 308.541 C 341.994 311.480, 335.183 317.233, 331.296 321.325 C 327.409 325.417, 322.378 331.881, 320.115 335.690 C 317.852 339.499, 314.699 346.189, 313.108 350.557 C 311.517 354.926, 309.654 361.993, 308.969 366.261 C 308.190 371.111, 307.939 378.237, 308.302 385.261 C 308.620 391.443, 309.611 399.200, 310.503 402.500 C 311.395 405.800, 314.089 412.575, 316.490 417.555 C 318.891 422.535, 323.349 429.797, 326.397 433.693 C 329.445 437.588, 334.654 443.044, 337.972 445.817 C 341.291 448.590, 346.700 452.495, 349.992 454.495 C 353.285 456.496, 359.471 459.402, 363.739 460.953 C 368.008 462.505, 373.975 464.241, 377 464.810 C 380.025 465.380, 384.192 466.078, 386.260 466.362 C 389.546 466.812, 389.837 466.694, 388.570 465.427 C 387.772 464.629, 386.808 461.902, 386.428 459.366 C 386.030 456.717, 386.242 452.495, 386.926 449.440 C 387.702 445.971, 388.704 443.969, 389.808 443.678 C 390.739 443.433, 389.444 443.180, 386.932 443.116 C 384.419 443.052, 379.919 442.282, 376.932 441.404 C 373.944 440.526, 368.350 438.189, 364.500 436.210 C 359.677 433.732, 355.009 430.108, 349.491 424.557 C 343.670 418.702, 340.462 414.451, 337.749 409 C 335.697 404.875, 333.338 398.818, 332.509 395.540 C 331.679 392.262, 331.007 385.512, 331.015 380.540 C 331.023 375.568, 331.707 368.626, 332.535 365.114 C 333.363 361.602, 335.933 355.077, 338.246 350.614 C 341.159 344.995, 344.630 340.314, 349.534 335.394 C 354.863 330.046, 358.706 327.264, 365.058 324.153 C 369.701 321.880, 376.182 319.340, 379.460 318.510 C 382.738 317.679, 386.173 317, 387.093 317 C 388.627 317, 388.643 316.647, 387.285 312.750 C 386.335 310.025, 386.005 306.706, 386.365 303.500 C 386.674 300.750, 387.221 297.488, 387.580 296.250 C 388.099 294.462, 387.850 294.031, 386.367 294.150 C 385.340 294.232, 383.150 294.486, 381.500 294.715 M 445.437 446.250 C 442.500 449.500, 442.500 449.500, 445.750 446.563 C 447.538 444.948, 449 443.485, 449 443.313 C 449 443.141, 448.859 443, 448.687 443 C 448.515 443, 447.052 444.462, 445.437 446.250" stroke="none" fill="#70dcba" fill-rule="evenodd"/><path d="M 387.154 298.301 C 386.519 300.823, 386.025 304.374, 386.056 306.193 C 386.087 308.012, 386.650 311.075, 387.306 313 C 388.500 316.500, 388.500 316.500, 398 317.137 C 403.471 317.504, 410.256 318.699, 414 319.954 C 417.575 321.152, 423.120 323.678, 426.322 325.567 C 430.549 328.060, 433.335 329, 436.495 329 C 440.020 329, 441.430 328.416, 443.923 325.923 C 446.301 323.546, 447 321.965, 447 318.970 C 447 316.838, 446.515 314.031, 445.923 312.731 C 445.331 311.431, 442.598 308.895, 439.849 307.096 C 437.101 305.297, 432.385 302.734, 429.371 301.400 C 426.356 300.067, 420.652 298.061, 416.695 296.943 C 412.738 295.824, 404.732 294.641, 398.904 294.313 C 388.309 293.717, 388.309 293.717, 387.154 298.301 M 430.725 428.775 C 427.301 431.952, 422.858 435.560, 420.851 436.794 C 418.844 438.029, 414.575 439.942, 411.364 441.047 C 408.153 442.152, 401.619 443.333, 396.845 443.672 C 388.165 444.288, 388.165 444.288, 387.082 448.587 C 386.487 450.951, 386.003 454.149, 386.006 455.693 C 386.009 457.237, 386.479 460.184, 387.050 462.242 C 387.775 464.850, 388.789 466.160, 390.397 466.564 C 391.666 466.882, 396.938 466.671, 402.111 466.094 C 407.284 465.517, 414.803 463.928, 418.818 462.562 C 422.834 461.196, 428.635 458.639, 431.710 456.880 C 434.784 455.121, 440.358 450.797, 444.096 447.271 C 448.142 443.454, 451.349 439.473, 452.023 437.430 C 452.869 434.866, 452.865 433.120, 452.006 430.517 C 451.373 428.601, 449.581 426.126, 448.024 425.017 C 446.285 423.779, 443.600 423, 441.070 423 C 437.437 423, 436.214 423.683, 430.725 428.775" stroke="none" fill="#b0ebd8" fill-rule="evenodd"/><path d="M 391.493 268.250 C 389.478 270.587, 387.216 273.670, 386.467 275.100 C 385.103 277.701, 385.103 277.701, 397.302 278.298 C 405.374 278.693, 412.882 279.758, 419.500 281.447 C 425.322 282.932, 433.801 286.133, 439.793 289.107 C 446.271 292.321, 451.860 295.942, 454.870 298.873 C 457.991 301.913, 460.234 305.238, 461.326 308.444 C 462.247 311.146, 463 315.446, 463 318 C 463 320.554, 462.312 324.662, 461.472 327.128 C 460.632 329.594, 458.574 333.275, 456.898 335.307 C 455.223 337.339, 451.748 340.239, 449.176 341.751 C 445.128 344.131, 443.426 344.500, 436.500 344.500 C 428.837 344.500, 428.058 344.278, 418 339.223 C 409.983 335.193, 405.904 333.758, 400.750 333.151 C 397.037 332.715, 390.962 332.719, 387.250 333.161 C 382.756 333.696, 378.056 335.169, 373.185 337.569 C 368.743 339.758, 363.769 343.274, 360.522 346.522 C 357.237 349.807, 353.795 354.692, 351.600 359.185 C 349.427 363.634, 347.611 369.269, 346.965 373.566 C 346.205 378.624, 346.216 382.595, 347.006 387.538 C 347.613 391.335, 349.509 397.381, 351.220 400.971 C 353.213 405.155, 356.572 409.744, 360.570 413.747 C 364.522 417.705, 369.112 421.084, 373.090 422.965 C 376.544 424.599, 381.864 426.453, 384.912 427.086 C 387.961 427.718, 393.506 428.018, 397.236 427.751 C 402.072 427.405, 405.808 426.384, 410.259 424.191 C 413.692 422.500, 418.474 419.042, 420.888 416.508 C 423.301 413.974, 427.093 410.973, 429.315 409.839 C 431.537 408.706, 435.913 407.546, 439.039 407.263 C 442.887 406.914, 446.338 407.284, 449.721 408.407 C 452.470 409.320, 456.643 411.715, 458.995 413.728 C 461.348 415.741, 464.332 419.664, 465.626 422.444 C 467.339 426.121, 467.980 429.272, 467.980 434 C 467.980 438.771, 467.339 441.878, 465.569 445.679 C 464.189 448.643, 460.491 453.484, 456.920 457 C 453.489 460.378, 448.166 464.848, 445.091 466.932 C 442.016 469.017, 437.250 471.848, 434.500 473.223 C 431.750 474.597, 426.575 476.662, 423 477.810 C 419.425 478.958, 413.830 480.371, 410.566 480.949 C 407.303 481.527, 400.215 482, 394.816 482 C 389.417 482, 385 482.256, 385 482.570 C 385 482.883, 386.341 485.021, 387.980 487.320 C 389.619 489.619, 392.035 492.784, 393.349 494.353 C 395.739 497.206, 395.739 497.206, 424.619 496.766 C 450.659 496.371, 454.139 496.118, 460 494.200 C 463.575 493.029, 468.750 490.662, 471.500 488.939 C 474.250 487.216, 478.245 484.163, 480.378 482.153 C 482.511 480.144, 486.005 475.832, 488.143 472.572 C 490.281 469.312, 492.915 463.776, 493.998 460.270 C 495.081 456.765, 496.261 449.532, 496.619 444.198 C 496.978 438.864, 497.644 433.774, 498.098 432.887 C 498.552 432, 500.291 430.708, 501.962 430.016 C 504.930 428.787, 505 428.598, 505 421.879 C 505 415.886, 504.765 415, 503.174 415 C 502.170 415, 500.370 413.958, 499.174 412.686 C 497.007 410.378, 497 410.229, 496.969 363.436 C 496.952 337.621, 496.509 313.125, 495.985 309 C 495.299 303.606, 493.899 299.201, 490.998 293.313 C 488.219 287.671, 485.079 283.239, 480.901 279.061 C 476.832 274.992, 472.478 271.877, 467.668 269.595 C 463.726 267.725, 458.115 265.700, 455.201 265.097 C 452.108 264.457, 438.503 264, 422.529 264 C 395.156 264, 395.156 264, 391.493 268.250" stroke="none" fill="#30cd9c" fill-rule="evenodd"/><path d="M 275.044 81.577 C 273.144 82.402, 270.059 84.243, 268.189 85.669 C 266.319 87.095, 263.507 90.285, 261.939 92.757 C 259.121 97.201, 259.111 97.270, 261.068 98.876 C 262.260 99.854, 267.413 112.102, 274.023 129.669 C 280.061 145.711, 285 159.949, 285 161.308 C 285 162.667, 284.141 164.841, 283.090 166.139 C 281.197 168.479, 280.958 168.504, 256.379 169 C 231.578 169.500, 231.578 169.500, 227.431 180.500 C 223.285 191.500, 223.285 191.500, 259.608 192 C 290.121 192.420, 296.163 192.740, 297.384 194 C 298.183 194.825, 300.379 199.550, 302.264 204.500 C 304.999 211.684, 306.378 213.971, 309.095 215.836 C 311.755 217.661, 313.375 218.057, 316.500 217.648 C 319.293 217.282, 321.330 216.195, 323.250 214.046 C 325.197 211.867, 326.005 209.878, 326.019 207.234 C 326.031 204.764, 318.160 182.598, 302.769 141.754 C 289.971 107.794, 279.275 80.024, 279 80.043 C 278.725 80.062, 276.945 80.753, 275.044 81.577" stroke="none" fill="#fff1d4" fill-rule="evenodd"/><path d="M 112.113 296.583 C 110.996 298.004, 109.227 301.491, 108.182 304.333 C 107.137 307.175, 106.022 311.188, 105.704 313.250 C 105.126 317, 105.126 317, 120.247 317 C 133.541 317, 135.890 317.253, 139.685 319.090 C 142.060 320.239, 145.367 322.827, 147.036 324.840 C 148.704 326.853, 150.763 330.873, 151.612 333.774 C 152.861 338.040, 152.944 340.035, 152.046 344.221 C 151.436 347.066, 149.725 350.993, 148.243 352.947 C 146.762 354.901, 144.639 357.272, 143.525 358.216 C 142.411 359.160, 139.353 360.662, 136.729 361.554 C 132.915 362.849, 128.758 363.107, 116.024 362.837 C 100.599 362.511, 100.060 362.568, 99.126 364.620 C 98.596 365.786, 97.856 368.780, 97.482 371.273 C 97.032 374.275, 97.327 377.613, 98.356 381.153 C 99.911 386.500, 99.911 386.500, 122.705 386.500 C 144.983 386.500, 145.610 386.556, 150.343 388.974 C 153.006 390.334, 156.491 392.934, 158.087 394.751 C 159.682 396.569, 161.950 399.942, 163.127 402.248 C 164.309 404.565, 165.486 409.190, 165.759 412.583 C 166.100 416.832, 165.729 420.301, 164.555 423.833 C 163.578 426.775, 160.993 431.015, 158.459 433.834 C 155.804 436.787, 151.964 439.664, 148.779 441.086 C 143.954 443.242, 141.858 443.476, 124.413 443.812 C 105.327 444.179, 105.327 444.179, 106.077 448.840 C 106.489 451.403, 107.721 455.525, 108.814 458 C 109.907 460.475, 111.434 463.330, 112.206 464.344 C 113.478 466.014, 115.146 466.176, 129.768 466.052 C 141.183 465.955, 147.477 465.454, 151.213 464.346 C 154.121 463.483, 158.750 461.639, 161.500 460.247 C 164.250 458.856, 169.673 454.519, 173.552 450.609 C 178.112 446.012, 181.598 441.380, 183.418 437.500 C 184.966 434.200, 186.951 428.044, 187.830 423.819 C 189.186 417.297, 189.245 414.887, 188.219 407.846 C 187.440 402.506, 185.821 397.052, 183.669 392.527 C 181.609 388.195, 177.772 382.718, 173.664 378.246 C 169.999 374.256, 167 370.140, 167 369.100 C 167 368.059, 168.665 363.701, 170.701 359.414 C 173.901 352.676, 174.460 350.416, 174.827 342.728 C 175.136 336.281, 174.773 332.064, 173.507 327.389 C 172.548 323.843, 170.096 318.364, 168.059 315.213 C 166.022 312.062, 162.194 307.580, 159.552 305.255 C 156.910 302.929, 152.392 299.911, 149.512 298.549 C 146.633 297.187, 142.302 295.617, 139.888 295.061 C 137.475 294.504, 130.695 294.038, 124.823 294.024 C 114.520 294.001, 114.074 294.091, 112.113 296.583" stroke="none" fill="#ffdbe0" fill-rule="evenodd"/><path d="M 143.453 267.768 C 141.777 269.821, 139.365 272.988, 138.094 274.808 C 136.822 276.627, 135.943 278.227, 136.141 278.364 C 136.338 278.500, 139.425 279.182, 143 279.878 C 146.575 280.575, 152.875 282.747, 157 284.706 C 162.800 287.461, 166.314 290.108, 172.504 296.384 C 177.236 301.182, 181.846 307.029, 183.779 310.686 C 185.578 314.088, 187.938 320.348, 189.025 324.596 C 190.111 328.844, 191 335.601, 191 339.611 C 191 343.621, 190.501 349.286, 189.890 352.201 C 189.280 355.115, 187.880 359.624, 186.780 362.221 C 184.779 366.942, 184.779 366.942, 188.796 371.506 C 191.005 374.016, 194.616 379.541, 196.820 383.785 C 199.024 388.028, 201.599 394.425, 202.543 398 C 203.597 401.990, 204.274 408.361, 204.297 414.500 C 204.321 420.840, 203.710 426.879, 202.627 431 C 201.688 434.575, 199.360 440.650, 197.454 444.500 C 195.548 448.350, 191.950 454.061, 189.460 457.191 C 186.969 460.321, 182.138 464.982, 178.723 467.549 C 175.307 470.116, 169.875 473.549, 166.650 475.177 C 163.425 476.804, 157.388 479.006, 153.234 480.068 C 149.079 481.131, 143.458 482, 140.742 482 C 135.804 482, 135.804 482, 137.744 485.064 C 138.811 486.750, 141.389 490.169, 143.474 492.663 C 147.264 497.197, 147.264 497.197, 176.382 496.802 C 204.691 496.417, 205.701 496.334, 212.716 493.815 C 216.685 492.390, 222.790 489.185, 226.282 486.693 C 229.775 484.200, 234.464 479.763, 236.702 476.831 C 238.940 473.899, 241.725 469.602, 242.890 467.281 C 244.055 464.961, 245.675 460.236, 246.489 456.781 C 247.723 451.548, 247.973 438.727, 247.985 379.960 C 247.998 320.286, 247.768 308.528, 246.492 303.631 C 245.663 300.447, 243.750 295.290, 242.242 292.171 C 240.584 288.743, 236.732 283.732, 232.500 279.500 C 228.268 275.268, 223.257 271.416, 219.829 269.758 C 216.710 268.250, 211.553 266.337, 208.369 265.508 C 203.866 264.335, 196.350 264.004, 174.540 264.018 C 146.500 264.036, 146.500 264.036, 143.453 267.768 M 74.475 380.500 C 74.475 422.300, 74.599 439.254, 74.750 418.176 C 74.901 397.098, 74.900 362.898, 74.750 342.176 C 74.599 321.454, 74.475 338.700, 74.475 380.500 M 97.407 340 C 97.407 349.075, 97.559 352.788, 97.744 348.250 C 97.929 343.712, 97.929 336.288, 97.744 331.750 C 97.559 327.212, 97.407 330.925, 97.407 340 M 97.428 415 C 97.428 427.375, 97.571 432.438, 97.747 426.250 C 97.922 420.063, 97.922 409.938, 97.747 403.750 C 97.571 397.563, 97.428 402.625, 97.428 415" stroke="none" fill="#ff8e9e" fill-rule="evenodd"/><path d="M 81.388 294.980 C 80.227 295.449, 78.314 297.057, 77.138 298.552 C 75 301.270, 75 301.270, 75 379.588 C 75 436.643, 75.313 458.594, 76.154 460.439 C 76.789 461.832, 78.476 463.764, 79.904 464.732 C 82.108 466.226, 84.864 466.493, 98.136 466.496 C 113.773 466.500, 113.773 466.500, 111.938 463.918 C 110.929 462.498, 109.180 458.994, 108.052 456.131 C 106.923 453.268, 106 449.637, 106 448.062 C 106 445.846, 105.204 444.728, 102.485 443.123 C 100.551 441.983, 98.526 439.884, 97.985 438.460 C 97.443 437.035, 97 426.202, 97 414.385 C 97 397.074, 97.297 392.327, 98.527 389.948 C 99.904 387.286, 99.894 386.443, 98.428 381.401 C 97.318 377.582, 97.023 374.334, 97.498 371.167 C 97.880 368.614, 98.800 365.354, 99.541 363.921 C 100.714 361.653, 100.669 361.098, 99.194 359.625 C 97.765 358.198, 97.451 355.317, 97.187 341.198 C 96.995 330.918, 97.288 323.373, 97.947 321.640 C 98.589 319.951, 100.235 318.360, 102.049 317.675 C 104.032 316.927, 105.251 315.662, 105.576 314.016 C 105.849 312.632, 106.737 309.191, 107.549 306.370 C 108.362 303.548, 110.132 299.611, 111.483 297.620 C 113.940 294, 113.940 294, 98.720 294.063 C 90.349 294.098, 82.550 294.511, 81.388 294.980 M 119.750 466.737 C 122.638 466.939, 127.362 466.939, 130.250 466.737 C 133.137 466.535, 130.775 466.370, 125 466.370 C 119.225 466.370, 116.862 466.535, 119.750 466.737" stroke="none" fill="#ffb5c0" fill-rule="evenodd"/><path d="M 139.328 68.500 C 139.333 72.350, 139.513 73.802, 139.730 71.728 C 139.946 69.653, 139.943 66.503, 139.722 64.728 C 139.501 62.952, 139.324 64.650, 139.328 68.500 M 139.463 153.500 C 139.463 180.450, 139.592 191.331, 139.749 177.681 C 139.907 164.030, 139.906 141.980, 139.749 128.681 C 139.592 115.381, 139.463 126.550, 139.463 153.500 M 250.750 153.737 C 253.637 153.939, 258.363 153.939, 261.250 153.737 C 264.137 153.535, 261.775 153.370, 256 153.370 C 250.225 153.370, 247.863 153.535, 250.750 153.737 M 244.750 168.747 C 250.938 168.922, 261.063 168.922, 267.250 168.747 C 273.438 168.571, 268.375 168.428, 256 168.428 C 243.625 168.428, 238.563 168.571, 244.750 168.747 M 194.762 233.707 C 196.006 233.946, 197.806 233.937, 198.762 233.687 C 199.718 233.437, 198.700 233.241, 196.500 233.252 C 194.300 233.263, 193.518 233.468, 194.762 233.707 M 222.750 248.750 C 241.037 248.902, 270.962 248.902, 289.250 248.750 C 307.538 248.597, 292.575 248.472, 256 248.472 C 219.425 248.472, 204.462 248.597, 222.750 248.750 M 160.308 263.748 C 167.353 263.920, 178.603 263.919, 185.308 263.747 C 192.014 263.574, 186.250 263.433, 172.500 263.434 C 158.750 263.434, 153.264 263.576, 160.308 263.748 M 53.105 265.583 C 50.137 266.381, 45.421 268.263, 42.623 269.767 C 39.826 271.270, 34.552 275.425, 30.902 279 C 26.800 283.019, 23.065 287.886, 21.119 291.750 C 19.388 295.187, 17.286 300.955, 16.448 304.566 C 15.144 310.192, 14.968 321.469, 15.224 383.316 C 15.519 454.581, 15.551 455.573, 17.691 461.202 C 18.883 464.338, 21.004 468.858, 22.404 471.246 C 23.804 473.635, 26.953 477.680, 29.402 480.236 C 31.850 482.792, 36.249 486.471, 39.177 488.412 C 42.105 490.354, 47.200 492.953, 50.500 494.188 C 56.338 496.373, 57.723 496.443, 101.807 496.773 C 147.115 497.112, 147.115 497.112, 142.599 491.569 C 140.116 488.520, 137.613 485.145, 137.037 484.069 C 136.041 482.208, 134.585 482.098, 107.245 481.806 C 78.500 481.500, 78.500 481.500, 73.199 478.564 C 70.284 476.948, 66.557 473.802, 64.916 471.571 C 63.276 469.341, 61.274 465.293, 60.467 462.576 C 59.233 458.421, 59 445.319, 59 380 C 59 314.427, 59.230 301.590, 60.477 297.388 C 61.290 294.651, 63.628 290.459, 65.672 288.070 C 67.725 285.672, 71.652 282.674, 74.444 281.374 C 79.373 279.079, 80.203 279.019, 107.534 279.010 C 135.569 279, 135.569 279, 137.287 276.092 C 138.231 274.493, 140.578 271.300, 142.502 268.997 C 144.426 266.695, 146 264.628, 146 264.405 C 146 264.182, 126.313 264.030, 102.250 264.066 C 67.326 264.118, 57.412 264.424, 53.105 265.583 M 230 276.313 C 230 276.485, 231.463 277.948, 233.250 279.563 C 236.500 282.500, 236.500 282.500, 233.563 279.250 C 231.948 277.462, 230.485 276, 230.313 276 C 230.141 276, 230 276.141, 230 276.313 M 96.750 293.747 C 103.487 293.920, 114.513 293.920, 121.250 293.747 C 127.987 293.574, 122.475 293.432, 109 293.432 C 95.525 293.432, 90.013 293.574, 96.750 293.747 M 248.472 380.500 C 248.472 416.800, 248.597 431.505, 248.750 413.177 C 248.902 394.850, 248.902 365.150, 248.749 347.177 C 248.597 329.205, 248.472 344.200, 248.472 380.500 M 113 340 C 113 348, 113 348, 120.250 347.994 C 124.237 347.991, 129.182 347.522, 131.238 346.951 C 133.294 346.380, 135.432 345.062, 135.988 344.022 C 136.545 342.982, 137 340.956, 137 339.520 C 137 338.081, 135.898 335.807, 134.545 334.455 C 132.282 332.191, 131.347 332, 122.545 332 C 113 332, 113 332, 113 340 M 110.750 362.743 C 114.737 362.932, 121.263 362.932, 125.250 362.743 C 129.238 362.553, 125.975 362.397, 118 362.397 C 110.025 362.397, 106.763 362.553, 110.750 362.743 M 113 414.572 C 113 428.144, 113 428.144, 127.937 427.822 C 142.875 427.500, 142.875 427.500, 145.914 424.585 C 147.586 422.982, 149.439 420.199, 150.033 418.400 C 150.792 416.100, 150.802 413.979, 150.067 411.250 C 149.493 409.116, 148.005 406.417, 146.761 405.251 C 145.518 404.086, 143.233 402.653, 141.685 402.067 C 140.137 401.480, 133.049 401, 125.935 401 C 113 401, 113 401, 113 414.572 M 204.272 415 C 204.272 417.475, 204.467 418.488, 204.706 417.250 C 204.944 416.012, 204.944 413.988, 204.706 412.750 C 204.467 411.512, 204.272 412.525, 204.272 415 M 184.437 462.250 C 181.500 465.500, 181.500 465.500, 184.750 462.563 C 186.537 460.948, 188 459.485, 188 459.313 C 188 459.141, 187.859 459, 187.687 459 C 187.515 459, 186.052 460.462, 184.437 462.250" stroke="none" fill="#ea5b70" fill-rule="evenodd"/><path d="M 251.741 46.427 C 249.673 47.166, 247.237 48.385, 246.328 49.135 C 245.419 49.886, 243.878 52.300, 242.905 54.500 C 241.931 56.700, 228.764 90.976, 213.644 130.668 C 198.524 170.361, 186.067 203.661, 185.962 204.668 C 185.856 205.676, 185.822 207.558, 185.885 208.850 C 185.948 210.143, 187.530 212.730, 189.400 214.600 C 191.953 217.153, 193.660 218, 196.252 218 C 198.188 218, 201.188 217, 203.083 215.723 C 205.808 213.887, 207.107 211.709, 209.796 204.473 C 211.629 199.538, 213.745 194.872, 214.497 194.104 C 215.249 193.336, 217.538 192.435, 219.584 192.103 C 223.277 191.502, 223.334 191.418, 227.237 180.999 C 229.400 175.225, 231.637 169.938, 232.207 169.250 C 232.962 168.341, 232.818 168, 231.679 168 C 230.818 168, 229.413 167, 228.557 165.777 C 227.701 164.555, 227 162.595, 227 161.421 C 227 160.248, 231.902 146.511, 237.892 130.894 C 243.883 115.277, 249.083 101.773, 249.447 100.885 C 249.812 99.997, 251.231 98.760, 252.602 98.135 C 253.973 97.511, 256.096 97, 257.320 97 C 258.845 97, 260.149 95.879, 261.465 93.434 C 262.522 91.473, 264.964 88.483, 266.892 86.790 C 268.821 85.097, 272.334 82.855, 274.699 81.809 C 277.065 80.763, 279 79.575, 279 79.169 C 279 78.764, 276.767 72.597, 274.038 65.466 C 270.187 55.404, 268.286 51.772, 265.552 49.250 C 263.615 47.462, 261.160 46, 260.096 46 C 259.033 46, 257.564 45.794, 256.832 45.542 C 256.099 45.290, 253.808 45.688, 251.741 46.427" stroke="none" fill="#fce3a0" fill-rule="evenodd"/><path d="M 181 16.567 C 177.425 17.341, 171.575 19.403, 168 21.149 C 163.748 23.225, 159.202 26.649, 154.855 31.048 C 150.598 35.356, 147.115 40.069, 145.160 44.164 C 143.483 47.679, 141.646 52.568, 141.079 55.028 C 140.513 57.488, 140.038 62.777, 140.024 66.782 C 140.011 70.787, 139.373 75.564, 138.608 77.397 C 137.686 79.601, 136.163 81.096, 134.108 81.813 C 131.027 82.887, 131 82.957, 131 89.948 C 131 96.109, 131.231 97, 132.826 97 C 133.830 97, 135.742 98.161, 137.076 99.579 C 139.500 102.159, 139.500 102.159, 140 155.329 C 140.485 206.862, 140.566 208.662, 142.652 213.745 C 143.836 216.630, 145.928 220.908, 147.302 223.252 C 148.675 225.596, 152.190 229.905, 155.113 232.827 C 158.035 235.749, 163.152 239.665, 166.485 241.529 C 169.817 243.392, 175.458 245.604, 179.022 246.444 C 184.296 247.687, 193.458 247.973, 228.335 247.985 C 271.170 248, 271.170 248, 267.209 243.500 C 265.030 241.025, 261.672 235.962, 259.747 232.250 C 257.822 228.537, 255.553 223.250, 254.706 220.500 C 253.859 217.750, 252.886 213.823, 252.542 211.774 C 251.918 208.048, 251.918 208.048, 269.209 207.741 C 278.719 207.572, 272.794 207.449, 256.041 207.467 C 225.583 207.500, 225.583 207.500, 223.062 214 C 221.299 218.544, 218.994 222.060, 215.402 225.684 C 211.405 229.715, 208.977 231.242, 204.479 232.549 C 200.734 233.638, 197.132 234.016, 194.258 233.622 C 191.816 233.287, 187.907 232.168, 185.570 231.134 C 183.233 230.100, 179.758 227.691, 177.847 225.781 C 175.937 223.870, 173.524 220.550, 172.485 218.403 C 171.446 216.257, 170.424 211.575, 170.214 208 C 169.834 201.548, 170.046 200.938, 198.867 125.306 C 214.836 83.399, 228.805 47.342, 229.909 45.178 C 231.013 43.014, 233.985 39.423, 236.514 37.197 C 239.042 34.971, 243.191 32.441, 245.734 31.575 C 248.276 30.709, 252.451 30, 255.010 30 C 259.631 30, 259.705 29.946, 265.337 22.500 C 271.010 15, 271.010 15, 229.255 15.079 C 197.349 15.140, 185.967 15.491, 181 16.567 M 254.992 130.250 C 254.461 131.488, 252.254 137.113, 250.088 142.750 C 246.151 153, 246.151 153, 256.050 153 C 265.950 153, 265.950 153, 262.868 144.750 C 261.173 140.213, 259.117 134.588, 258.299 132.250 C 257.481 129.912, 256.620 128, 256.385 128 C 256.149 128, 255.523 129.012, 254.992 130.250" stroke="none" fill="#ffb357" fill-rule="evenodd"/><path d="M 267.903 19.143 C 265.971 21.539, 263.397 24.926, 262.185 26.668 C 259.980 29.837, 259.980 29.837, 263.240 30.542 C 265.033 30.929, 268.525 32.274, 271 33.530 C 273.475 34.786, 276.679 37.093, 278.121 38.657 C 279.562 40.221, 281.440 42.625, 282.295 44 C 283.150 45.375, 296.785 80.700, 312.595 122.500 C 338.636 191.350, 341.382 199.183, 341.780 205.765 C 342.165 212.124, 341.888 213.708, 339.559 218.469 C 338.095 221.461, 335.511 225.075, 333.815 226.502 C 332.120 227.928, 328.962 229.999, 326.798 231.103 C 324.634 232.207, 320.719 233.364, 318.099 233.675 C 315.101 234.030, 311.307 233.650, 307.867 232.650 C 304.860 231.775, 300.773 229.809, 298.786 228.280 C 296.799 226.751, 294.022 223.742, 292.615 221.594 C 291.208 219.445, 289.333 215.508, 288.448 212.844 C 286.839 208, 286.839 208, 269.374 208 C 251.909 208, 251.909 208, 252.538 211.750 C 252.883 213.813, 253.859 217.750, 254.706 220.500 C 255.553 223.250, 257.822 228.537, 259.747 232.250 C 261.672 235.962, 265.030 241.025, 267.209 243.500 C 271.170 248, 271.170 248, 298.875 248 C 320.340 248, 327.884 247.660, 332.369 246.492 C 335.553 245.663, 340.710 243.760, 343.829 242.264 C 347.257 240.620, 352.299 236.766, 356.577 232.522 C 360.883 228.249, 364.723 223.296, 366.386 219.869 C 367.889 216.772, 369.761 211.822, 370.547 208.869 C 371.722 204.455, 371.978 190.772, 371.988 131.960 C 371.998 70.920, 371.775 59.557, 370.469 54.542 C 369.627 51.308, 367.597 46.151, 365.958 43.081 C 364.319 40.012, 361.188 35.410, 359.001 32.855 C 356.814 30.301, 352.477 26.520, 349.364 24.454 C 346.251 22.387, 340.508 19.555, 336.602 18.159 C 329.749 15.710, 328.480 15.606, 300.458 15.204 C 271.416 14.786, 271.416 14.786, 267.903 19.143" stroke="none" fill="#ffce71" fill-rule="evenodd"/><path d="M 174.216 2.019 C 170.209 3.068, 163.807 5.569, 159.988 7.576 C 156.169 9.583, 150.028 13.986, 146.342 17.362 C 142.655 20.738, 137.473 26.816, 134.825 30.869 C 132.153 34.960, 128.836 41.857, 127.369 46.369 C 125.347 52.590, 124.619 57.201, 124.269 66 C 123.843 76.707, 123.958 77.655, 125.945 79.750 C 127.314 81.194, 129.255 82, 131.365 82 C 133.507 82, 135.408 81.194, 136.826 79.686 C 138.622 77.773, 139.003 76.165, 139.017 70.436 C 139.027 66.621, 139.679 60.459, 140.467 56.743 C 141.254 53.026, 143.525 46.889, 145.514 43.106 C 147.502 39.322, 151.463 33.918, 154.315 31.098 C 157.167 28.279, 161.525 24.629, 164 22.989 C 166.475 21.349, 171.425 18.993, 175 17.754 C 181.500 15.500, 181.500 15.500, 256 15.500 C 326.788 15.500, 330.792 15.596, 336.361 17.422 C 339.584 18.479, 344.759 20.999, 347.861 23.022 C 350.962 25.046, 355.628 28.882, 358.230 31.548 C 360.831 34.213, 364.566 39.452, 366.530 43.190 C 368.494 46.927, 370.746 53.026, 371.533 56.743 C 372.695 62.223, 372.969 76.365, 372.983 131.566 C 372.994 175.869, 372.624 201.704, 371.924 205.566 C 371.333 208.830, 369.332 214.650, 367.479 218.500 C 365.626 222.350, 362.054 227.829, 359.542 230.676 C 357.030 233.522, 352.222 237.689, 348.858 239.936 C 345.493 242.183, 339.536 245.029, 335.620 246.261 C 328.520 248.494, 328.296 248.500, 256 248.500 C 188.493 248.500, 183.087 248.374, 177.500 246.663 C 174.200 245.653, 169.211 243.525, 166.414 241.934 C 163.617 240.343, 159.302 237.257, 156.825 235.077 C 154.348 232.897, 150.639 228.671, 148.583 225.686 C 146.528 222.701, 143.649 217.163, 142.185 213.379 C 139.525 206.500, 139.525 206.500, 139.013 153.784 C 138.572 108.521, 138.286 100.855, 136.987 99.557 C 136.154 98.725, 134.047 97.759, 132.303 97.411 C 129.736 96.897, 128.644 97.265, 126.566 99.343 C 124 101.909, 124 101.909, 124.017 152.705 C 124.031 193.635, 124.322 204.854, 125.511 210.471 C 126.324 214.306, 128.501 220.606, 130.350 224.471 C 132.199 228.337, 135.835 234.306, 138.430 237.736 C 141.025 241.165, 144.300 244.878, 145.709 245.986 C 148.270 248, 148.270 248, 105.093 248 C 70.390 248, 60.403 248.300, 54.208 249.528 C 49.596 250.442, 42.702 252.911, 37.043 255.674 C 29.376 259.419, 26.159 261.736, 20.043 267.922 C 15.894 272.118, 11.006 278.089, 9.179 281.191 C 7.353 284.293, 4.653 290.131, 3.179 294.165 C 0.500 301.500, 0.500 301.500, 0.213 377 C -0.041 443.509, 0.117 453.368, 1.539 459.787 C 2.427 463.795, 4.990 470.770, 7.236 475.287 C 10.418 481.689, 13.213 485.395, 19.909 492.091 C 26.605 498.787, 30.311 501.582, 36.713 504.764 C 41.230 507.010, 48.205 509.573, 52.213 510.461 C 58.632 511.883, 68.491 512.041, 135 511.787 C 210.500 511.500, 210.500 511.500, 217 509.182 C 220.575 507.908, 226.650 505.021, 230.500 502.768 C 234.350 500.514, 240.466 495.670, 244.092 492.003 C 247.717 488.336, 251.738 483.460, 253.026 481.168 C 254.314 478.875, 255.653 477, 256 477 C 256.347 477, 257.686 478.875, 258.974 481.168 C 260.262 483.460, 264.283 488.336, 267.908 492.003 C 271.534 495.670, 277.650 500.514, 281.500 502.768 C 285.350 505.021, 291.425 507.908, 295 509.182 C 301.500 511.500, 301.500 511.500, 377 511.787 C 443.509 512.041, 453.368 511.883, 459.787 510.461 C 463.795 509.573, 470.770 507.010, 475.287 504.764 C 481.689 501.582, 485.395 498.787, 492.091 492.091 C 498.782 485.399, 501.582 481.687, 504.758 475.300 C 507 470.790, 509.393 464.490, 510.075 461.300 C 510.758 458.110, 511.695 455.072, 512.158 454.550 C 512.621 454.027, 513 419.913, 513 378.741 C 513 336.213, 512.622 304.116, 512.125 304.423 C 511.644 304.720, 510.949 303.085, 510.582 300.790 C 510.215 298.494, 508.634 293.567, 507.068 289.840 C 505.502 286.113, 502.154 280.167, 499.628 276.628 C 497.103 273.088, 492.440 267.869, 489.268 265.030 C 486.024 262.127, 479.562 257.940, 474.500 255.462 C 469.223 252.879, 462.312 250.424, 457.792 249.528 C 451.597 248.300, 441.610 248, 406.907 248 C 363.730 248, 363.730 248, 366.291 245.986 C 367.700 244.878, 370.975 241.165, 373.570 237.736 C 376.165 234.306, 379.802 228.334, 381.653 224.465 C 383.504 220.595, 385.703 214.146, 386.540 210.132 C 387.838 203.905, 388.020 191.965, 387.781 128.668 C 387.500 54.500, 387.500 54.500, 384.744 46.369 C 383.229 41.898, 379.822 34.923, 377.175 30.869 C 374.527 26.816, 369.345 20.738, 365.658 17.362 C 361.972 13.986, 355.838 9.586, 352.028 7.584 C 348.218 5.582, 341.631 3.057, 337.391 1.972 C 330.047 0.094, 326.157 0.003, 255.590 0.055 C 185.997 0.107, 181.058 0.226, 174.216 2.019 M 247.173 31.424 C 244.794 32.199, 241.042 34.085, 238.836 35.613 C 236.631 37.142, 233.576 40.217, 232.048 42.446 C 230.521 44.676, 216.099 81.085, 200.001 123.355 C 183.902 165.625, 170.515 202.121, 170.252 204.458 C 169.983 206.842, 170.465 211.088, 171.350 214.130 C 172.265 217.279, 174.491 221.382, 176.657 223.913 C 178.723 226.327, 182.645 229.323, 185.444 230.626 C 189.123 232.339, 192.285 232.983, 197.054 232.990 C 202.114 232.998, 204.792 232.410, 208.805 230.410 C 211.664 228.985, 215.353 226.182, 217.004 224.180 C 218.654 222.178, 221.199 217.493, 222.660 213.770 C 225.316 207, 225.316 207, 256 207 C 286.684 207, 286.684 207, 289.340 213.770 C 290.801 217.493, 293.346 222.178, 294.996 224.180 C 296.647 226.182, 300.336 228.985, 303.195 230.410 C 307.208 232.410, 309.886 232.998, 314.946 232.990 C 319.715 232.983, 322.877 232.339, 326.556 230.626 C 329.355 229.323, 333.277 226.327, 335.343 223.913 C 337.509 221.382, 339.735 217.279, 340.650 214.130 C 341.528 211.113, 342.017 206.839, 341.753 204.497 C 341.491 202.181, 328.071 165.291, 311.930 122.519 C 284.613 50.135, 282.287 44.423, 278.320 40.011 C 275.703 37.100, 272.022 34.395, 268.780 33.001 C 265.876 31.752, 260.801 30.568, 257.500 30.371 C 254.045 30.165, 249.665 30.611, 247.173 31.424 M 248.984 46.863 C 247.068 47.888, 244.705 50.079, 243.734 51.733 C 242.763 53.387, 229.116 88.436, 213.407 129.620 C 189.235 192.994, 184.922 205.088, 185.338 208.328 C 185.609 210.433, 186.656 213.082, 187.665 214.216 C 188.674 215.349, 190.966 216.897, 192.758 217.655 C 194.647 218.454, 197.170 218.755, 198.758 218.371 C 200.266 218.007, 202.665 216.895, 204.089 215.901 C 205.847 214.674, 207.738 211.269, 209.980 205.297 C 211.797 200.458, 214.369 195.488, 215.697 194.250 C 218.112 192, 218.112 192, 256 192 C 293.888 192, 293.888 192, 296.334 194.250 C 297.679 195.487, 300.025 200.017, 301.548 204.316 C 303.070 208.615, 305.169 213.217, 306.212 214.542 C 307.254 215.867, 309.867 217.426, 312.017 218.005 C 315.023 218.814, 316.687 218.736, 319.213 217.667 C 321.021 216.902, 323.326 215.349, 324.335 214.216 C 325.344 213.082, 326.392 210.433, 326.663 208.328 C 327.080 205.095, 322.778 192.913, 299.005 130 C 283.522 89.025, 270.074 54.152, 269.123 52.503 C 268.171 50.855, 265.887 48.493, 264.048 47.253 C 261.924 45.822, 259.203 45, 256.587 45 C 254.322 45, 250.901 45.838, 248.984 46.863 M 251.689 99.250 C 250.757 99.938, 245.046 113.484, 238.998 129.354 C 232.949 145.223, 228 159.666, 228 161.449 C 228 163.319, 228.774 165.390, 229.829 166.345 C 231.426 167.791, 234.770 168, 256.256 168 C 280.855 168, 280.855 168, 282.927 165.365 C 284.067 163.916, 285 162.284, 285 161.739 C 285 161.194, 280.008 147.417, 273.907 131.124 C 267.805 114.831, 262.110 100.713, 261.252 99.750 C 260.389 98.783, 258.278 98, 256.536 98 C 254.802 98, 252.620 98.563, 251.689 99.250 M 255.050 129.121 C 254.487 130.429, 252.220 136.200, 250.013 141.943 C 247.806 147.687, 246 152.750, 246 153.193 C 246 153.637, 250.500 154, 256 154 C 261.671 154, 266 153.587, 266 153.047 C 266 152.523, 263.943 146.566, 261.429 139.810 C 258.915 133.053, 256.682 127.349, 256.467 127.133 C 256.251 126.918, 255.614 127.812, 255.050 129.121 M 101.500 263.912 C 55.403 264.493, 54.390 264.549, 48.775 266.815 C 45.627 268.085, 40.436 271.049, 37.241 273.402 C 34.045 275.754, 29.718 279.663, 27.625 282.089 C 25.532 284.515, 22.504 289.087, 20.896 292.250 C 19.287 295.412, 17.286 300.955, 16.448 304.566 C 15.144 310.192, 14.968 321.469, 15.224 383.316 C 15.519 454.581, 15.551 455.573, 17.691 461.202 C 18.883 464.338, 21.004 468.858, 22.404 471.246 C 23.804 473.635, 26.953 477.680, 29.402 480.236 C 31.850 482.792, 36.249 486.471, 39.177 488.412 C 42.105 490.354, 47.200 492.963, 50.500 494.210 C 56.500 496.477, 56.500 496.477, 128.684 496.776 C 190.531 497.032, 201.808 496.856, 207.434 495.552 C 211.045 494.714, 216.605 492.714, 219.790 491.106 C 222.974 489.499, 228.005 486.005, 230.970 483.342 C 233.935 480.679, 238.095 475.819, 240.215 472.542 C 242.335 469.264, 245.066 463.414, 246.285 459.542 C 248.486 452.546, 248.500 452.032, 248.500 381 C 248.500 323.744, 248.227 308.404, 247.128 304 C 246.373 300.975, 244.123 295.351, 242.128 291.503 C 240.103 287.598, 236.064 282.074, 232.987 279.003 C 229.955 275.976, 224.688 272.022, 221.284 270.216 C 217.879 268.410, 212.935 266.225, 210.297 265.361 C 206.473 264.108, 199.721 263.742, 177 263.555 C 161.325 263.425, 127.350 263.586, 101.500 263.912 M 350 263.918 C 305.408 264.476, 303.285 264.588, 298.255 266.652 C 295.370 267.836, 290.961 270.005, 288.457 271.472 C 285.953 272.940, 281.530 276.553, 278.628 279.502 C 275.726 282.450, 271.966 287.481, 270.271 290.681 C 268.577 293.882, 266.473 298.944, 265.595 301.932 C 264.198 306.688, 264.003 316.386, 264.024 379.932 C 264.040 426.093, 264.424 454.127, 265.079 456.972 C 265.646 459.432, 267.508 464.382, 269.216 467.972 C 271.286 472.321, 274.522 476.678, 278.911 481.027 C 282.535 484.616, 288.242 488.993, 291.593 490.752 C 294.944 492.511, 300.569 494.630, 304.093 495.460 C 309.483 496.731, 321.567 496.973, 380.201 496.985 C 426.695 496.995, 451.666 496.637, 455.201 495.909 C 458.115 495.309, 463.819 493.202, 467.876 491.228 C 472.812 488.825, 477.300 485.589, 481.444 481.444 C 485.589 477.300, 488.825 472.812, 491.228 467.876 C 493.202 463.819, 495.309 458.115, 495.909 455.201 C 496.509 452.286, 497 446.609, 497 442.586 C 497 436.760, 497.411 434.747, 499.020 432.702 C 500.131 431.289, 502.043 429.968, 503.270 429.765 C 504.496 429.563, 506.731 429.991, 508.236 430.717 C 509.740 431.443, 511.203 433.041, 511.486 434.268 C 511.769 435.496, 512.133 440.550, 512.295 445.500 C 512.456 450.450, 512.573 420.525, 512.553 379 C 512.530 328.946, 512.428 321.560, 512.250 357.084 C 511.983 410.668, 511.983 410.668, 509.547 412.956 C 507.573 414.811, 506.444 415.118, 503.585 414.582 C 501.645 414.218, 499.370 412.938, 498.529 411.738 C 497.208 409.851, 496.998 402.831, 496.985 360.027 C 496.973 319.895, 496.690 309.313, 495.494 304.240 C 494.683 300.797, 492.706 295.379, 491.101 292.200 C 489.496 289.021, 486.005 283.995, 483.342 281.030 C 480.679 278.065, 475.832 273.914, 472.572 271.805 C 469.312 269.696, 463.687 267.009, 460.072 265.835 C 454.055 263.879, 451.095 263.684, 425 263.517 C 409.325 263.417, 375.575 263.598, 350 263.918 M 245.870 270.520 C 249.225 274.107, 252.663 278.382, 253.511 280.020 C 254.358 281.659, 255.478 283, 256 283 C 256.522 283, 257.642 281.659, 258.489 280.020 C 259.337 278.382, 262.775 274.107, 266.130 270.520 C 272.229 264, 272.229 264, 256 264 C 239.771 264, 239.771 264, 245.870 270.520 M 74.444 281.374 C 71.652 282.674, 67.725 285.672, 65.672 288.070 C 63.628 290.459, 61.290 294.651, 60.477 297.388 C 59.230 301.590, 59 314.427, 59 380 C 59 445.319, 59.233 458.421, 60.467 462.576 C 61.274 465.293, 63.276 469.341, 64.916 471.571 C 66.557 473.802, 70.284 476.948, 73.199 478.564 C 78.500 481.500, 78.500 481.500, 113 481.500 C 143.466 481.500, 148.258 481.285, 153.983 479.662 C 157.549 478.652, 163.126 476.505, 166.377 474.892 C 169.628 473.279, 174.464 470.362, 177.124 468.409 C 179.783 466.457, 184.423 462.137, 187.433 458.810 C 190.458 455.468, 194.724 449.095, 196.967 444.566 C 199.200 440.059, 201.688 433.250, 202.496 429.436 C 203.304 425.621, 203.973 418.859, 203.983 414.410 C 203.993 409.613, 203.208 403.224, 202.055 398.713 C 200.985 394.530, 198.907 388.567, 197.439 385.462 C 195.970 382.357, 192.525 376.890, 189.783 373.313 C 184.798 366.809, 184.798 366.809, 187.321 359.155 C 188.708 354.945, 190.156 348.295, 190.538 344.378 C 191.034 339.293, 190.758 334.911, 189.571 329.054 C 188.657 324.542, 186.805 318.355, 185.456 315.305 C 184.107 312.254, 180.965 306.903, 178.475 303.412 C 175.984 299.922, 171.371 294.957, 168.223 292.381 C 165.075 289.804, 159.800 286.431, 156.500 284.886 C 153.200 283.341, 147.818 281.385, 144.540 280.539 C 139.826 279.322, 132.402 279.002, 109.040 279.010 C 80.127 279.019, 79.393 279.070, 74.444 281.374 M 374 280.446 C 370.425 281.200, 363.642 283.222, 358.927 284.939 C 354.212 286.656, 347.012 290.026, 342.927 292.427 C 338.842 294.828, 332.350 299.442, 328.500 302.681 C 324.650 305.919, 318.455 312.359, 314.733 316.991 C 310.840 321.836, 305.876 329.679, 303.045 335.456 C 300.338 340.980, 297.207 348.875, 296.087 353 C 294.967 357.125, 293.556 364.964, 292.952 370.419 C 292.171 377.465, 292.156 383.127, 292.900 389.966 C 293.476 395.262, 295.108 403.600, 296.527 408.496 C 297.946 413.392, 300.929 421.021, 303.156 425.449 C 305.383 429.877, 309.136 436.200, 311.496 439.500 C 313.855 442.800, 319.322 448.926, 323.643 453.113 C 327.964 457.300, 334.796 462.855, 338.824 465.459 C 342.852 468.062, 349.147 471.552, 352.812 473.214 C 356.478 474.876, 363.757 477.374, 368.989 478.765 C 377.088 480.919, 380.726 481.301, 393.500 481.341 C 404.397 481.375, 410.368 480.924, 415.329 479.690 C 419.085 478.756, 425.484 476.608, 429.549 474.915 C 433.614 473.223, 439.566 470.141, 442.776 468.066 C 445.986 465.992, 451.536 461.559, 455.110 458.216 C 458.683 454.874, 462.933 449.745, 464.553 446.819 C 467.090 442.239, 467.496 440.458, 467.477 434 C 467.459 428.243, 466.945 425.539, 465.265 422.366 C 464.062 420.092, 461.602 416.756, 459.800 414.954 C 457.997 413.151, 454.492 410.773, 452.011 409.668 C 449.181 408.408, 445.264 407.645, 441.500 407.619 C 437.410 407.591, 433.979 408.267, 430.721 409.745 C 428.093 410.937, 423.368 414.352, 420.221 417.333 C 417.075 420.314, 412.475 423.821, 410 425.127 C 406.020 427.226, 404.172 427.500, 394 427.500 C 384.249 427.500, 381.614 427.143, 376.676 425.150 C 373.472 423.858, 368.096 420.708, 364.728 418.150 C 361.264 415.519, 356.752 410.780, 354.337 407.237 C 351.990 403.792, 349.336 398.617, 348.439 395.737 C 347.542 392.857, 346.573 387.338, 346.287 383.473 C 346 379.608, 346.301 373.865, 346.956 370.710 C 347.611 367.556, 349.702 361.867, 351.602 358.069 C 353.974 353.327, 357.001 349.363, 361.258 345.421 C 364.669 342.263, 370.315 338.343, 373.805 336.710 C 377.333 335.059, 383.453 333.265, 387.588 332.670 C 393.030 331.886, 396.832 331.908, 401.759 332.752 C 406.140 333.502, 411.988 335.666, 418.496 338.943 C 423.998 341.715, 430.569 344.263, 433.098 344.606 C 436.158 345.021, 439.671 344.656, 443.598 343.515 C 448.198 342.179, 450.636 340.665, 454.650 336.650 C 458.649 332.651, 460.181 330.193, 461.499 325.653 C 462.658 321.665, 462.986 318.328, 462.531 315.153 C 462.164 312.594, 460.956 308.593, 459.848 306.261 C 458.739 303.930, 455.733 300.173, 453.166 297.913 C 450.600 295.653, 444.450 291.844, 439.500 289.449 C 434.550 287.053, 426.450 283.886, 421.500 282.410 C 413.702 280.086, 410.363 279.684, 396.500 279.401 C 385.604 279.179, 378.427 279.512, 374 280.446 M 82.035 294.306 C 80.046 294.992, 77.588 296.959, 76.267 298.924 C 73.965 302.348, 73.965 302.348, 74.232 381.155 C 74.500 459.962, 74.500 459.962, 77.768 463.231 C 81.036 466.500, 81.036 466.500, 111.435 466.791 C 135.940 467.026, 143.110 466.786, 148.417 465.556 C 152.038 464.716, 157.813 462.612, 161.250 460.881 C 165.108 458.938, 170.024 455.168, 174.097 451.029 C 177.737 447.330, 181.910 441.840, 183.406 438.781 C 184.898 435.733, 186.761 430.822, 187.547 427.869 C 188.333 424.916, 188.976 418.900, 188.976 414.500 C 188.976 410.100, 188.361 404.191, 187.610 401.368 C 186.858 398.546, 184.733 393.403, 182.887 389.939 C 181.040 386.475, 176.936 380.956, 173.765 377.675 C 169.646 373.414, 168 370.940, 168 369.015 C 168 367.532, 169.334 363.650, 170.964 360.388 C 172.594 357.125, 174.486 351.204, 175.168 347.228 C 176.147 341.517, 176.151 338.479, 175.188 332.750 C 174.518 328.762, 172.571 322.632, 170.861 319.127 C 169.027 315.366, 165.384 310.384, 161.974 306.974 C 158.468 303.468, 153.691 300, 149.828 298.157 C 146.326 296.485, 140.545 294.645, 136.981 294.067 C 133.416 293.488, 120.375 293.037, 108 293.064 C 93.294 293.096, 84.300 293.526, 82.035 294.306 M 383.679 294.015 C 379.927 294.474, 373.627 295.826, 369.679 297.020 C 365.730 298.214, 359.413 300.735, 355.640 302.623 C 351.867 304.511, 346.692 307.483, 344.140 309.228 C 341.588 310.973, 336.125 315.829, 332 320.019 C 327.874 324.209, 322.382 331.205, 319.792 335.568 C 317.202 339.931, 313.745 347.550, 312.108 352.500 C 310.472 357.450, 308.616 365.325, 307.984 370 C 307.312 374.980, 307.125 381.813, 307.534 386.500 C 307.918 390.900, 309.055 397.739, 310.062 401.698 C 311.068 405.658, 313.481 412.336, 315.423 416.539 C 317.364 420.742, 320.937 426.952, 323.362 430.340 C 325.788 433.728, 330.636 439.226, 334.136 442.557 C 337.636 445.889, 342.672 450.097, 345.327 451.908 C 347.981 453.720, 353.995 457.002, 358.690 459.202 C 363.517 461.464, 371.197 464.022, 376.364 465.088 C 381.389 466.125, 389.173 466.980, 393.662 466.987 C 398.151 466.994, 405.155 466.363, 409.225 465.584 C 413.296 464.805, 419.523 462.992, 423.063 461.556 C 426.604 460.119, 431.946 457.321, 434.935 455.338 C 437.925 453.356, 442.576 449.670, 445.273 447.148 C 447.969 444.626, 450.810 441.334, 451.587 439.831 C 452.364 438.329, 453 435.684, 453 433.954 C 453 432.224, 452.232 429.509, 451.294 427.920 C 450.356 426.332, 448.062 424.308, 446.197 423.423 C 443.948 422.356, 441.640 422.033, 439.346 422.463 C 437.025 422.898, 433.602 425.208, 428.944 429.483 C 425.126 432.987, 419.588 436.996, 416.639 438.391 C 413.690 439.786, 409.302 441.383, 406.888 441.939 C 404.475 442.496, 398.675 442.955, 394 442.961 C 389.325 442.966, 382.626 442.293, 379.114 441.465 C 375.602 440.637, 369.128 438.087, 364.728 435.798 C 359.440 433.047, 354.487 429.404, 350.114 425.051 C 346.477 421.429, 341.798 415.548, 339.718 411.983 C 337.638 408.417, 334.941 402.350, 333.724 398.500 C 331.995 393.025, 331.516 389.103, 331.528 380.500 C 331.538 372.765, 332.080 367.736, 333.355 363.556 C 334.353 360.287, 336.593 354.662, 338.334 351.056 C 340.536 346.496, 343.936 342.047, 349.500 336.443 C 355.009 330.895, 359.680 327.265, 364.500 324.783 C 368.350 322.801, 374.200 320.368, 377.500 319.377 C 381.766 318.095, 386.679 317.587, 394.500 317.618 C 403.806 317.656, 406.732 318.085, 413.500 320.404 C 417.900 321.912, 423.750 324.561, 426.500 326.290 C 430.241 328.642, 432.691 329.442, 436.231 329.467 C 440.209 329.495, 441.454 329.008, 444.055 326.407 C 446.124 324.338, 447.307 322.019, 447.627 319.407 C 447.971 316.593, 447.541 314.600, 446.089 312.285 C 444.980 310.517, 442.144 307.846, 439.786 306.350 C 437.429 304.854, 432.121 302.198, 427.991 300.449 C 423.861 298.701, 417.336 296.573, 413.491 295.721 C 409.646 294.870, 402.900 293.950, 398.500 293.677 C 394.100 293.405, 387.430 293.557, 383.679 294.015 M 100.455 319.455 C 98.030 321.879, 98 322.129, 98 339.955 C 98 356.849, 98.132 358.132, 100.062 360.062 C 102.017 362.017, 103.057 362.109, 119.980 361.812 C 137.835 361.500, 137.835 361.500, 142.124 358.483 C 144.813 356.591, 147.491 353.420, 149.303 349.983 C 151.855 345.141, 152.136 343.755, 151.702 338.131 C 151.324 333.228, 150.545 330.813, 148.318 327.645 C 146.727 325.382, 143.920 322.515, 142.080 321.275 C 140.241 320.035, 137.107 318.569, 135.118 318.016 C 133.128 317.463, 125.067 317.009, 117.205 317.006 C 103.356 317, 102.832 317.077, 100.455 319.455 M 113 340 C 113 348, 113 348, 120.250 347.994 C 124.237 347.991, 129.182 347.522, 131.238 346.951 C 133.294 346.380, 135.432 345.062, 135.988 344.022 C 136.545 342.982, 137 340.956, 137 339.520 C 137 338.081, 135.898 335.807, 134.545 334.455 C 132.282 332.191, 131.347 332, 122.545 332 C 113 332, 113 332, 113 340 M 102.315 386.962 C 101.114 387.471, 99.651 388.783, 99.065 389.878 C 98.399 391.124, 98 400.621, 98 415.260 C 98 438.635, 98.002 438.653, 100.391 440.898 C 102.740 443.105, 103.162 443.139, 124.141 442.822 C 143.748 442.526, 145.828 442.324, 149.500 440.348 C 151.700 439.164, 155.158 436.532, 157.184 434.498 C 159.210 432.464, 161.578 429.303, 162.446 427.473 C 163.314 425.644, 164.433 421.977, 164.934 419.324 C 165.470 416.482, 165.480 412.561, 164.958 409.781 C 164.471 407.185, 163.195 403.360, 162.124 401.281 C 161.052 399.201, 158.673 396.086, 156.838 394.358 C 155.002 392.630, 151.475 390.161, 149 388.873 C 144.777 386.675, 143.270 386.515, 124.500 386.283 C 113.500 386.147, 103.517 386.452, 102.315 386.962 M 113 414.572 C 113 428.144, 113 428.144, 127.937 427.822 C 142.875 427.500, 142.875 427.500, 145.914 424.585 C 147.586 422.982, 149.439 420.199, 150.033 418.400 C 150.792 416.100, 150.802 413.979, 150.067 411.250 C 149.493 409.116, 148.005 406.417, 146.761 405.251 C 145.518 404.086, 143.233 402.653, 141.685 402.067 C 140.137 401.480, 133.049 401, 125.935 401 C 113 401, 113 401, 113 414.572" stroke="none" fill="#070706" fill-rule="evenodd"/><path d="M 372.472 131.500 C 372.472 167.800, 372.597 182.505, 372.750 164.177 C 372.902 145.850, 372.902 116.150, 372.749 98.177 C 372.597 80.205, 372.472 95.200, 372.472 131.500 M 175.272 340 C 175.272 342.475, 175.467 343.488, 175.706 342.250 C 175.944 341.012, 175.944 338.988, 175.706 337.750 C 175.467 336.512, 175.272 337.525, 175.272 340 M 114.299 443.745 C 119.139 443.929, 126.789 443.928, 131.299 443.743 C 135.810 443.558, 131.850 443.408, 122.500 443.409 C 113.150 443.410, 109.460 443.562, 114.299 443.745 M 100.280 466.736 C 102.909 466.943, 106.959 466.940, 109.280 466.731 C 111.601 466.521, 109.450 466.352, 104.500 466.355 C 99.550 466.358, 97.651 466.530, 100.280 466.736" stroke="none" fill="#f5ae8e" fill-rule="evenodd"/></svg>